<?xml version="1.0" standalone="no"?>
<!DOCTYPE svg PUBLIC "-//W3C//DTD SVG 20010904//EN"
 "http://www.w3.org/TR/2001/REC-SVG-20010904/DTD/svg10.dtd">
<svg version="1.0" xmlns="http://www.w3.org/2000/svg"
 width="7890.000000pt" height="5000.000000pt" viewBox="0 0 7890.000000 5000.000000"
 preserveAspectRatio="xMidYMid meet">

<g transform="translate(0.000000,5000.000000) scale(0.100000,-0.100000)"
fill="#000000" stroke="none">
<path d="M22830 42573 c-50 -8 -156 -45 -195 -68 -22 -13 -68 -47 -101 -77
-33 -30 -101 -76 -150 -104 -109 -60 -167 -116 -204 -197 -66 -140 -85 -295
-77 -602 7 -248 24 -391 66 -557 52 -205 137 -367 247 -467 31 -28 59 -51 64
-51 11 0 20 54 20 130 0 51 -6 81 -25 123 -29 62 -75 234 -75 278 0 24 -5 29
-36 35 -77 14 -134 113 -120 207 9 56 56 131 95 151 24 13 52 15 148 10 179
-10 238 16 321 138 156 230 413 380 646 377 45 -1 92 -4 106 -8 35 -9 105
-118 131 -203 20 -66 21 -86 16 -262 -8 -269 -40 -505 -87 -642 -11 -31 -19
-59 -17 -60 2 -2 40 57 86 132 149 241 252 467 307 670 35 132 45 346 19 444
-24 95 -71 177 -140 245 -77 77 -141 114 -290 169 -66 24 -182 71 -258 105
-179 80 -225 91 -362 90 -60 -1 -121 -4 -135 -6z"/>
<path d="M23174 39903 c42 -144 56 -534 23 -633 -33 -97 -76 -120 -155 -83
-54 25 -204 180 -311 322 -100 131 -261 368 -261 382 0 29 -268 -7 -987 -131
-197 -33 -246 -53 -331 -134 -203 -191 -315 -546 -364 -1151 -13 -170 -16
-855 -4 -1076 l8 -146 51 -11 c106 -23 270 -33 550 -31 159 0 290 -1 292 -3 3
-3 32 -558 43 -828 l7 -165 80 -8 c120 -12 831 -11 1069 2 115 6 211 9 213 7
3 -3 -39 -112 -92 -243 -54 -131 -99 -243 -102 -250 -2 -6 -45 -19 -94 -28
-49 -9 -208 -46 -352 -83 l-262 -67 -445 -5 c-245 -3 -451 -9 -458 -13 -37
-24 -31 -106 8 -127 12 -7 787 -10 2174 -10 2091 0 2157 1 2206 19 68 26 121
70 152 128 24 42 342 750 734 1629 141 318 150 347 120 417 -17 42 -66 83
-114 97 -24 6 -292 10 -754 10 -612 0 -717 2 -712 14 11 28 -212 805 -334
1166 -168 497 -324 776 -480 859 -90 48 -567 135 -956 176 -181 18 -168 19
-162 -2z m1834 -3223 c39 -24 72 -89 71 -140 -1 -96 -76 -180 -160 -180 -84 0
-142 75 -137 175 8 130 126 206 226 145z"/>
<path d="M58703 37820 c-59 -88 -222 -328 -362 -533 -139 -204 -323 -475 -409
-602 -86 -126 -174 -256 -195 -288 -22 -31 -38 -59 -36 -61 25 -20 132 -67
138 -60 5 5 172 250 372 544 200 294 445 656 546 804 101 148 183 273 183 278
0 4 -6 8 -14 8 -8 0 -35 16 -60 35 -26 19 -48 35 -50 35 -3 0 -53 -72 -113
-160z"/>
<path d="M54551 36545 c-24 -75 -25 -85 -10 -85 6 0 456 -142 999 -315 544
-173 992 -315 997 -315 8 0 75 132 70 136 -1 1 -281 90 -622 199 -341 108
-795 253 -1009 321 -215 68 -393 124 -396 124 -4 0 -17 -29 -29 -65z"/>
<path d="M53539 36092 c-6 -15 -116 -306 -246 -647 -129 -341 -264 -696 -299
-789 -35 -92 -64 -170 -64 -171 0 -2 31 -19 68 -38 l68 -35 313 825 c172 453
311 826 309 828 -2 2 -34 15 -71 29 l-68 25 -10 -27z"/>
<path d="M19390 33689 c-190 -18 -403 -80 -579 -169 -463 -232 -783 -651 -893
-1166 l-23 -109 -3 -7824 -2 -7824 32 9 c18 4 146 9 283 10 l250 2 70 41 c58
34 225 110 298 134 16 6 17 376 17 7589 0 4913 4 7616 10 7677 36 344 275 635
616 750 134 45 158 46 972 46 l774 0 -5 30 c-2 17 -40 181 -85 365 -44 184
-86 361 -93 393 l-12 57 -771 -1 c-424 -1 -809 -5 -856 -10z"/>
<path d="M24370 33690 c-446 -7 -760 -15 -975 -25 -55 -3 -176 -7 -270 -11
-292 -10 -726 -32 -731 -36 -2 -3 93 -763 96 -763 0 0 510 1 1134 3 l1134 2 6
63 c3 34 11 139 17 232 9 146 24 281 55 498 4 26 5 46 3 45 -2 -1 -213 -5
-469 -8z"/>
<path d="M26326 33286 c-75 -228 -136 -418 -136 -422 0 -5 1999 -8 4475 -6
l4475 2 0 420 0 420 -4339 0 -4339 0 -136 -414z"/>
<path d="M44430 33280 l0 -420 2275 0 2275 0 0 420 0 420 -2275 0 -2275 0 0
-420z"/>
<path d="M58610 33584 c-768 -66 -1386 -237 -2010 -557 -1004 -515 -1799
-1315 -2297 -2312 -464 -927 -643 -1982 -512 -3019 115 -917 464 -1771 1029
-2521 189 -250 312 -388 576 -645 630 -614 1477 -1081 2339 -1292 l175 -43 0
-2583 c0 -2527 0 -2584 19 -2640 32 -94 59 -244 81 -452 42 -397 87 -589 195
-831 119 -263 258 -459 599 -839 310 -345 450 -560 518 -795 20 -69 23 -103
23 -250 0 -194 -12 -268 -76 -459 -111 -335 -327 -640 -562 -792 -41 -27 -83
-54 -92 -59 -16 -10 -16 -21 4 -185 32 -269 49 -380 87 -575 89 -453 316
-1397 343 -1424 10 -10 105 -39 229 -70 l213 -53 78 12 c68 11 84 11 126 -3
27 -10 52 -17 57 -17 4 0 9 2688 10 5973 l3 5972 25 3 c93 11 345 62 510 103
435 108 868 278 1244 488 124 69 151 81 161 69 16 -15 975 -1368 975 -1374 0
-2 -15 -27 -33 -56 -139 -218 -153 -508 -37 -739 16 -30 271 -395 568 -810
296 -415 1273 -1782 2171 -3039 1808 -2532 1706 -2397 1882 -2484 131 -64 200
-81 339 -80 132 0 207 16 318 69 105 49 475 320 559 408 148 156 222 385 193
597 -13 92 -61 231 -102 295 -14 22 -993 1395 -2176 3050 -1745 2444 -2165
3026 -2233 3096 -74 75 -98 93 -189 137 -163 80 -308 100 -477 66 -43 -8 -84
-16 -91 -17 -7 -1 -233 309 -502 688 l-491 690 78 70 c365 326 672 677 918
1050 704 1066 991 2320 824 3605 -200 1538 -1115 2957 -2439 3782 -696 433
-1428 683 -2285 779 -96 11 -773 21 -865 13z m795 -620 c1095 -108 2086 -574
2855 -1344 767 -767 1237 -1747 1356 -2825 34 -313 29 -733 -12 -1065 -98
-785 -411 -1567 -878 -2190 -446 -596 -1005 -1059 -1671 -1385 -592 -290
-1135 -429 -1817 -466 -561 -31 -1229 69 -1773 263 -1639 586 -2818 2031
-3064 3753 -64 452 -59 946 15 1398 121 743 417 1441 860 2032 264 353 604
689 960 952 741 546 1618 854 2554 897 131 6 459 -5 615 -20z"/>
<path d="M39857 32435 c-88 -24 -160 -67 -228 -134 -70 -71 -109 -138 -134
-236 -61 -238 72 -493 305 -585 353 -139 736 161 682 535 -37 255 -250 437
-507 434 -38 0 -92 -7 -118 -14z"/>
<path d="M21933 30016 c-97 -126 -118 -169 -133 -268 -15 -104 -4 -153 46
-202 82 -79 172 -101 419 -101 206 0 314 17 469 72 112 39 153 67 158 105 8
49 -9 272 -28 381 -20 115 -1 110 -174 47 -134 -48 -229 -70 -308 -70 -88 0
-228 45 -321 104 -22 14 -44 26 -48 26 -5 0 -41 -42 -80 -94z"/>
<path d="M24570 30067 c-36 -18 -64 -74 -115 -231 -49 -148 -51 -176 -14 -227
10 -15 31 -31 46 -37 16 -7 156 -43 313 -81 157 -39 532 -131 834 -205 592
-147 634 -154 680 -111 56 52 21 119 -132 247 -115 97 -215 158 -509 312
l-239 126 -84 -10 c-109 -13 -268 -13 -345 0 -112 18 -160 39 -242 107 -99 81
-154 123 -162 123 -3 0 -17 -6 -31 -13z"/>
<path d="M45245 23729 c-295 -283 -552 -916 -724 -1784 -73 -367 -72 -383 8
-145 70 211 237 679 296 830 253 650 402 997 490 1138 14 23 24 42 20 42 -3 0
-44 -37 -90 -81z"/>
<path d="M44451 21574 c0 -11 3 -14 6 -6 3 7 2 16 -1 19 -3 4 -6 -2 -5 -13z"/>
<path d="M44291 20542 c-114 -278 -130 -323 -113 -318 9 2 50 10 90 17 l72 12
0 199 c0 109 -1 198 -2 198 -2 0 -23 -49 -47 -108z"/>
<path d="M10023 16767 c-23 -13 -136 -123 -535 -524 l-238 -239 0 -49 0 -49
419 -420 c357 -358 421 -417 433 -405 7 8 39 48 71 90 184 244 497 494 795
634 l83 39 -453 453 c-249 249 -467 460 -485 468 -37 18 -60 18 -90 2z"/>
<path d="M55775 16332 c-16 -14 -29 -29 -27 -34 1 -4 -5 -8 -14 -8 -11 0 -15
-6 -11 -20 3 -11 -2 -25 -11 -32 -12 -10 -14 -10 -8 0 4 6 3 12 -2 12 -13 0
-93 -111 -86 -121 3 -5 0 -8 -8 -7 -7 2 -12 -5 -12 -14 1 -10 -2 -15 -7 -12
-5 3 -12 -3 -16 -13 -3 -10 -13 -26 -20 -35 -8 -9 -12 -22 -7 -29 4 -7 3 -10
-3 -6 -9 6 -98 -156 -105 -193 -2 -8 -9 -21 -16 -29 -7 -7 -11 -20 -8 -28 3
-8 2 -12 -3 -8 -7 4 -25 -33 -36 -75 -1 -3 -9 -21 -17 -40 -9 -19 -18 -44 -20
-55 -1 -11 -6 -22 -9 -25 -23 -21 -172 -502 -214 -693 -18 -83 -16 -93 25
-100 14 -2 32 -7 40 -10 18 -8 184 -47 197 -47 6 0 13 72 17 168 3 92 9 185
13 206 5 32 4 38 -8 31 -12 -8 -12 -6 0 8 8 10 15 34 17 55 2 20 15 102 29
181 14 79 23 146 20 149 -2 3 -1 10 5 16 5 7 25 72 44 146 19 74 47 164 61
199 14 36 25 68 25 72 0 4 5 20 12 36 6 15 12 30 13 33 1 3 8 21 16 40 7 19
12 38 11 43 -1 4 3 7 9 7 5 0 7 5 4 10 -3 6 -1 10 5 10 7 0 10 6 7 14 -3 8 1
17 9 20 9 3 13 10 10 15 -4 5 -3 11 2 13 15 6 52 80 46 90 -4 7 -2 8 4 4 7 -4
12 -3 12 3 0 5 12 24 26 41 34 39 28 46 -11 12z"/>
<path d="M7087 16237 c-138 -279 -442 -898 -532 -1082 -123 -250 -309 -631
-540 -1100 -81 -165 -200 -408 -265 -540 -65 -132 -188 -384 -275 -560 -87
-176 -213 -432 -280 -570 -67 -137 -182 -371 -255 -520 -73 -148 -188 -382
-255 -520 -67 -137 -207 -421 -310 -630 -103 -209 -200 -407 -215 -441 l-28
-61 59 14 c64 15 183 21 269 13 l55 -4 43 84 c50 100 455 924 582 1185 48 99
154 315 235 480 81 165 200 408 265 540 65 132 193 393 285 580 92 187 211
430 265 540 54 110 180 367 280 570 100 204 224 456 275 560 51 105 179 366
285 580 106 215 200 409 211 433 10 23 23 42 28 42 9 0 370 -175 378 -184 2
-2 -40 -90 -93 -197 -53 -107 -134 -270 -179 -364 -46 -93 -160 -327 -255
-520 -95 -192 -221 -449 -280 -570 -59 -121 -176 -359 -260 -530 -84 -170
-205 -418 -270 -550 -65 -132 -186 -379 -270 -550 -84 -170 -196 -400 -250
-510 -54 -110 -182 -371 -285 -580 -103 -209 -229 -465 -280 -570 -51 -104
-145 -296 -208 -425 l-115 -234 51 -56 c56 -61 112 -144 141 -208 10 -23 22
-42 26 -42 5 0 24 33 43 73 19 39 126 257 237 482 111 226 240 487 285 580 46
94 158 323 250 510 239 486 432 878 550 1120 57 116 176 359 265 540 89 182
215 438 280 570 65 132 186 380 270 550 84 171 201 409 260 530 59 121 203
413 319 649 116 235 212 435 213 444 4 19 15 13 -537 283 -236 116 -433 213
-436 215 -3 2 -18 -20 -32 -49z"/>
<path d="M48200 15916 c0 -5 8 -23 19 -40 10 -17 22 -41 25 -53 8 -26 10 -25
-332 -83 -702 -119 -1374 -198 -1927 -227 -216 -11 -707 -8 -865 6 -315 27
-576 90 -713 171 -21 12 -41 20 -44 16 -15 -15 -100 -649 -127 -946 -38 -411
-51 -885 -32 -1177 l8 -133 -9962 -2 -9963 -3 172 -128 c212 -159 301 -242
394 -366 315 -417 359 -955 131 -1570 -20 -53 -57 -140 -83 -193 l-47 -97 27
-84 c85 -260 77 -555 -21 -832 -182 -513 -699 -1052 -1290 -1346 -163 -81
-261 -113 -466 -149 -98 -18 -188 -36 -199 -40 -23 -9 -34 -5 121 -53 157 -50
307 -109 473 -188 l144 -69 5778 0 5779 0 2 -1217 3 -1218 748 -3 747 -2 0
-308 c1 -435 1 -2573 0 -2839 l0 -223 -16645 0 -16645 0 0 -115 0 -115 33895
0 33895 0 0 115 0 115 -3942 1 c-2169 1 -3912 5 -3874 10 490 57 911 395 1066
857 57 169 60 214 60 792 0 577 -3 615 -59 787 -115 351 -399 649 -745 782
-100 38 -219 69 -316 80 -46 5 414 9 1183 10 l1257 1 0 80 0 80 -4257 2
c-3079 2 -4268 6 -4293 14 -33 11 -124 33 -152 38 -7 1 -23 8 -36 14 -12 7
-27 10 -32 7 -6 -3 -10 -1 -10 5 0 6 -4 9 -9 5 -5 -3 -12 -1 -16 5 -4 6 -11 8
-16 5 -5 -4 -9 -1 -9 5 0 7 -7 9 -16 6 -8 -3 -13 -2 -10 3 6 8 -72 48 -86 44
-5 -2 -8 1 -8 5 0 13 -73 51 -94 49 -10 -1 -20 4 -22 11 -1 7 0 8 3 2 2 -5 9
-10 15 -10 6 0 3 9 -7 20 -17 19 -19 19 -31 2 -13 -16 -14 -16 -8 1 4 12 -6
29 -35 57 -42 41 -64 53 -40 23 7 -10 1 -7 -14 6 -28 25 -38 43 -12 21 11 -9
15 -9 15 -1 0 6 -6 14 -14 17 -16 6 -92 105 -108 140 -6 13 -15 21 -19 18 -5
-3 -9 4 -9 15 0 11 -7 26 -15 34 -8 8 -11 17 -8 20 3 4 -3 19 -13 34 -10 15
-17 31 -16 35 1 4 -5 37 -14 74 -12 54 -14 133 -12 457 l3 392 30 85 c16 47
29 91 28 98 0 7 2 11 5 8 9 -10 43 54 36 67 -4 7 -4 9 1 5 11 -10 57 53 50 70
-3 7 0 10 6 7 13 -9 81 63 73 77 -4 7 -2 8 5 4 6 -4 24 5 41 21 16 15 47 42
69 58 22 17 38 35 36 42 -2 7 1 15 7 19 6 4 8 3 4 -4 -3 -6 -3 -13 2 -16 10
-6 65 28 57 36 -3 2 2 5 10 5 24 0 95 35 89 44 -3 5 3 6 12 2 11 -4 15 -2 11
4 -4 6 3 11 16 11 12 0 40 8 62 18 22 10 42 18 45 19 3 1 24 5 47 9 24 4 45
12 48 16 3 5 12 7 20 4 8 -3 20 -2 27 2 7 4 22 10 33 13 11 2 1379 6 3040 8
1661 2 3576 4 4255 6 l1235 2 0 75 0 75 -3800 5 c-2090 3 -3774 9 -3742 13
239 34 480 179 626 376 62 84 134 231 163 336 22 78 23 93 23 580 0 486 -1
502 -23 588 -81 319 -323 578 -637 680 -44 15 -102 30 -130 36 -37 6 10 9 188
10 166 1 237 4 237 12 0 6 -51 118 -114 249 -397 825 -639 1479 -681 1842 l-6
57 -147 -1 c-81 0 -163 3 -183 7 -36 7 -37 6 -43 -32 -16 -89 -36 -130 -76
-157 -22 -15 -40 -31 -40 -37 0 -6 19 -43 43 -82 105 -174 188 -328 217 -398
182 -461 112 -969 -191 -1372 -43 -57 -110 -134 -150 -171 l-71 -66 359 0
c197 0 397 -5 443 -10 312 -38 572 -220 705 -494 81 -166 95 -263 95 -651 0
-324 -10 -426 -51 -550 -92 -276 -305 -481 -596 -572 l-88 -28 -2147 -3 -2148
-2 -1 -23 c0 -12 -4 -48 -8 -79 l-7 -58 1720 -1 c1457 -1 1706 -3 1626 -14
-256 -35 -441 -105 -635 -240 -189 -132 -314 -300 -377 -506 -21 -71 -22 -94
-26 -514 -2 -293 0 -460 8 -503 18 -103 63 -225 116 -309 60 -97 204 -243 304
-308 133 -86 332 -170 455 -191 11 -2 52 -11 90 -19 46 -10 166 -19 350 -25
218 -7 300 -13 370 -29 335 -74 616 -272 793 -557 81 -131 126 -245 159 -409
16 -81 18 -149 18 -670 0 -568 -1 -582 -23 -685 -69 -315 -246 -576 -512 -755
-138 -93 -262 -146 -435 -188 l-90 -21 -4307 -3 -4308 -3 0 97 1 98 39 18 c94
43 237 222 316 393 67 144 154 460 154 558 l0 26 -3500 0 -3500 0 0 2310 0
2310 4128 0 4127 0 -3 -54 -4 -53 84 -23 c238 -65 579 -101 750 -80 51 6 94
13 96 15 2 2 17 54 33 117 17 62 37 137 45 166 l15 52 409 0 410 0 0 80 0 80
-391 0 c-369 0 -390 1 -385 18 3 9 33 113 66 229 213 754 528 1758 574 1828
12 18 28 25 73 30 165 19 154 15 169 64 7 24 28 59 46 78 191 201 864 591
2100 1216 137 69 222 117 213 121 -9 3 -583 6 -1277 6 -1238 0 -1263 1 -1303
20 -23 11 -53 33 -68 48 -23 24 -313 653 -491 1065 l-42 97 -1492 0 -1492 0
-4 22 c-3 13 -7 77 -11 143 -26 525 -168 1007 -499 1699 -100 209 -326 626
-326 602z m8305 -8014 c-3 -3 -11 0 -18 7 -9 10 -8 11 6 5 10 -3 15 -9 12 -12z
m-88 -324 c-3 -7 -5 -2 -5 12 0 14 2 19 5 13 2 -7 2 -19 0 -25z m41 -983 c-3
-3 -9 2 -12 12 -6 14 -5 15 5 6 7 -7 10 -15 7 -18z"/>
<path d="M54455 13449 c-2 -3 55 -149 127 -325 72 -175 174 -425 227 -554 l96
-235 282 -3 283 -2 147 74 c105 53 140 75 121 75 -15 1 -38 6 -52 12 -28 13
-27 10 -81 368 -19 123 -37 226 -40 229 -3 3 -143 -32 -312 -77 -170 -45 -318
-84 -331 -88 -16 -4 -21 -2 -17 8 5 14 65 478 65 504 0 12 -45 15 -256 17
-141 2 -257 0 -259 -3z"/>
<path d="M56490 9833 c1 -17 446 -796 454 -795 5 0 100 181 211 401 l203 401
-434 0 c-239 0 -434 -3 -434 -7z"/>
<path d="M5002 8945 c-28 -51 -202 -200 -252 -217 -11 -3 -5 -22 200 -618 67
-195 162 -474 212 -620 49 -146 121 -355 158 -465 38 -110 130 -380 205 -600
75 -220 161 -472 191 -560 31 -88 95 -277 144 -420 48 -143 143 -420 210 -615
151 -441 408 -1194 423 -1237 l10 -33 180 0 c167 0 179 1 172 18 -7 18 -52
149 -290 847 -79 231 -173 508 -210 615 -37 107 -137 400 -222 650 -85 250
-177 518 -203 595 -27 77 -115 334 -195 570 -81 237 -212 621 -292 855 -80
234 -208 609 -284 835 -77 225 -141 411 -143 413 -2 2 -8 -4 -14 -13z"/>
<path d="M21160 8846 c0 -4 23 -45 51 -92 99 -165 139 -288 139 -430 0 -155
-44 -258 -158 -367 -142 -135 -321 -214 -522 -232 -143 -12 -441 31 -630 91
l-82 26 -92 -26 c-241 -68 -380 -89 -571 -89 -165 1 -248 19 -375 82 -168 84
-274 181 -336 306 -35 71 -39 86 -42 177 -3 71 1 120 13 171 19 80 96 250 145
322 18 26 30 48 28 49 -1 2 -79 0 -173 -5 -93 -4 -303 -13 -466 -19 -244 -9
-309 -14 -370 -31 -199 -55 -420 -212 -600 -427 -452 -540 -783 -1470 -983
-2767 -34 -221 -166 -1268 -166 -1319 0 -15 7 -27 18 -30 9 -3 87 -24 172 -46
342 -91 680 -189 1110 -322 486 -149 1216 -391 1713 -567 244 -86 271 -91 405
-72 44 6 58 13 83 44 34 42 93 63 329 118 120 27 143 37 208 80 41 27 80 49
87 49 7 0 34 9 61 21 l49 20 244 597 c134 328 297 725 361 882 65 157 139 339
165 405 26 66 49 122 51 124 2 2 68 -21 146 -52 79 -32 148 -57 153 -57 6 0
26 41 45 91 l36 90 47 -69 48 -68 -20 -45 c-85 -198 -711 -1728 -711 -1739 0
-5 19 -14 43 -20 23 -7 74 -20 112 -31 39 -11 110 -26 158 -34 114 -20 202
-52 362 -133 l130 -65 90 6 c81 5 126 17 440 122 426 141 856 278 1190 379
295 88 801 232 850 242 19 3 35 10 35 16 0 14 -108 891 -136 1103 -243 1848
-774 3074 -1478 3415 -150 72 -183 78 -507 90 -341 12 -692 28 -811 36 -49 3
-88 3 -88 0z"/>
<path d="M3920 8757 c0 -2 90 -269 201 -593 111 -324 232 -679 269 -789 125
-366 351 -1028 407 -1190 30 -88 92 -270 138 -405 46 -135 180 -528 298 -875
392 -1146 457 -1338 457 -1341 0 -2 81 -4 179 -4 l179 0 -53 158 c-29 86 -87
256 -128 377 -41 121 -141 414 -222 650 -349 1021 -431 1263 -565 1655 -78
228 -168 492 -200 585 -66 194 -145 424 -360 1055 -84 245 -163 477 -177 516
l-24 72 -75 11 c-94 14 -181 43 -261 87 -35 18 -63 32 -63 31z"/>
<path d="M51353 7436 c-176 -121 -271 -161 -472 -201 -68 -14 -143 -34 -168
-45 -228 -101 -688 -541 -759 -725 -9 -24 -14 -55 -11 -68 8 -28 64 -57 111
-57 49 0 179 26 361 71 403 102 1276 398 1313 446 26 35 14 118 -34 236 -100
245 -192 407 -232 407 -9 0 -59 -29 -109 -64z"/>
<path d="M53389 6467 c-131 -129 -245 -205 -402 -269 -67 -27 -140 -61 -162
-75 -123 -81 -341 -336 -465 -543 -94 -156 -141 -262 -147 -330 -5 -57 -5 -58
25 -74 43 -22 87 -20 168 8 229 79 852 403 1284 667 201 124 194 117 193 176
0 27 -8 63 -17 80 -28 55 -186 286 -243 355 -46 57 -106 108 -125 108 -3 0
-52 -46 -109 -103z"/>
<path d="M31237 3689 c222 -313 279 -388 288 -377 7 7 85 128 172 268 88 140
185 293 215 340 30 47 64 102 77 123 l23 37 -526 0 -525 0 276 -391z"/>
<path d="M9387 3884 c-4 -4 -7 -79 -7 -166 l0 -158 170 0 170 0 -2 163 -3 162
-161 3 c-88 1 -163 -1 -167 -4z"/>
</g>
</svg>
