<?xml version="1.0" standalone="no"?>
<!DOCTYPE svg PUBLIC "-//W3C//DTD SVG 20010904//EN"
 "http://www.w3.org/TR/2001/REC-SVG-20010904/DTD/svg10.dtd">
<svg version="1.0" xmlns="http://www.w3.org/2000/svg"
 width="500.000000pt" height="500.000000pt" viewBox="0 0 500.000000 500.000000"
 preserveAspectRatio="xMidYMid meet">

<g transform="translate(0.000000,500.000000) scale(0.100000,-0.100000)"
fill="#000000" stroke="none">
<path d="M950 3805 l0 -695 695 0 695 0 0 695 0 695 -695 0 -695 0 0 -695z"/>
<path d="M2490 3490 c0 -11 7 -23 15 -26 12 -5 15 -24 15 -84 0 -60 -3 -79
-15 -84 -8 -3 -15 -15 -15 -27 0 -20 4 -21 85 -18 97 5 119 18 117 71 -2 67
-2 79 -1 110 2 23 -5 37 -25 55 -23 20 -38 23 -102 23 -68 0 -74 -2 -74 -20z
m148 -57 c3 -17 -3 -24 -22 -29 -33 -8 -46 1 -46 32 0 22 4 25 33 22 24 -2 33
-8 35 -25z m0 -105 c3 -22 -2 -29 -22 -34 -34 -8 -46 2 -46 37 0 28 2 30 33
27 26 -2 33 -8 35 -30z"/>
<path d="M3400 3490 c0 -11 7 -23 15 -26 12 -5 15 -24 15 -85 0 -62 -3 -81
-15 -85 -8 -4 -15 -15 -15 -25 0 -17 9 -19 105 -19 l105 0 0 45 c0 40 -2 45
-23 45 -14 0 -26 -9 -32 -22 -7 -17 -18 -23 -40 -23 l-30 0 -3 83 c-2 68 0 82
13 82 9 0 15 9 15 25 0 24 -3 25 -55 25 -49 0 -55 -2 -55 -20z"/>
<path d="M3692 3480 c-6 -11 -12 -22 -12 -25 0 -12 27 -2 55 20 l30 25 -30 0
c-19 0 -35 -7 -43 -20z"/>
<path d="M2749 3401 c-60 -60 -22 -150 64 -151 50 0 87 35 87 84 0 48 -8 65
-41 81 -43 23 -77 18 -110 -14z m91 -31 c24 -24 24 -29 4 -58 -17 -24 -43 -29
-62 -10 -18 18 -15 65 6 77 24 15 29 14 52 -9z"/>
<path d="M2930 3405 c0 -16 6 -25 16 -25 12 0 14 -9 12 -42 -2 -28 -7 -42 -15
-40 -8 1 -13 -8 -13 -23 0 -24 3 -25 55 -25 51 0 55 2 55 24 0 17 -5 23 -17
22 -21 -1 -30 49 -14 74 8 12 14 12 34 1 14 -7 30 -10 36 -7 15 10 14 56 -1
57 -7 0 -43 3 -80 5 -67 4 -68 4 -68 -21z"/>
<path d="M3148 3419 c-35 -13 -27 -43 9 -34 32 8 63 -2 63 -20 0 -9 -6 -12
-15 -9 -25 10 -64 -5 -81 -31 -15 -23 -15 -27 0 -49 14 -23 22 -25 91 -25 67
0 75 2 75 19 0 10 -4 22 -10 25 -5 3 -10 26 -10 51 0 73 -46 100 -122 73z m72
-113 c0 -15 -27 -25 -47 -19 -26 9 -13 33 17 33 19 0 30 -5 30 -14z"/>
<path d="M3658 3419 c-35 -13 -27 -43 9 -34 31 7 63 -2 63 -19 0 -8 -10 -11
-29 -8 -37 5 -85 -36 -74 -65 13 -37 24 -42 99 -42 72 0 74 1 74 25 0 13 -4
24 -10 24 -5 0 -10 20 -10 45 0 74 -46 101 -122 74z m72 -113 c0 -15 -27 -25
-47 -19 -26 9 -13 33 17 33 19 0 30 -5 30 -14z"/>
<path d="M2477 2983 c-4 -3 -7 -316 -7 -695 l0 -688 695 0 695 0 0 688 0 689
-247 6 c-323 9 -1128 9 -1136 0z"/>
<path d="M1200 1270 c-11 -11 -20 -31 -20 -45 0 -49 66 -85 98 -53 20 20 13
32 -7 14 -11 -10 -28 -16 -38 -14 -22 4 -42 43 -35 70 7 26 48 46 64 30 7 -7
17 -12 23 -12 18 1 -28 30 -47 30 -10 0 -27 -9 -38 -20z"/>
<path d="M1345 1276 c-13 -9 -19 -26 -19 -51 0 -59 60 -88 97 -47 52 57 -17
143 -78 98z m67 -13 c24 -21 23 -55 -2 -78 -17 -15 -24 -16 -45 -7 -44 20 -29
100 19 102 5 0 18 -7 28 -17z"/>
<path d="M1485 1225 c0 -58 2 -65 20 -65 15 0 16 3 7 9 -9 5 -12 24 -10 52 l3
44 30 -52 c17 -29 33 -53 38 -53 4 0 7 22 7 49 0 27 3 56 6 65 4 10 1 16 -8
16 -10 0 -13 -10 -10 -34 8 -68 -3 -74 -31 -18 -37 72 -52 68 -52 -13z"/>
<path d="M1635 1225 c0 -58 2 -65 20 -65 15 0 16 3 7 12 -7 7 -12 20 -12 30 0
14 8 18 41 18 40 0 41 -1 37 -30 -3 -23 -1 -30 11 -30 13 0 16 12 16 65 0 53
-3 65 -16 65 -12 0 -14 -7 -11 -30 4 -29 3 -30 -32 -30 -40 0 -56 20 -36 45
10 12 9 15 -6 15 -17 0 -19 -8 -19 -65z"/>
<path d="M1805 1225 l0 -65 43 0 c31 0 42 4 42 15 0 8 -4 15 -10 15 -5 0 -10
-5 -10 -11 0 -21 -45 -4 -48 19 -3 17 2 22 20 23 l23 0 -23 10 c-15 5 -22 16
-20 26 5 25 37 28 53 6 14 -17 14 -17 15 5 0 19 -5 22 -42 22 l-43 0 0 -65z"/>
<path d="M1937 1272 c-36 -40 -10 -112 41 -112 21 0 57 28 48 37 -3 3 -12 -2
-21 -11 -21 -21 -38 -20 -58 2 -23 25 -21 55 3 77 17 15 24 16 46 7 34 -16 42
-15 18 3 -26 20 -58 19 -77 -3z"/>
<path d="M2084 1238 c-9 -29 -21 -59 -27 -65 -7 -10 -4 -13 10 -13 14 0 19 7
19 23 -1 16 5 23 23 25 25 4 44 -15 36 -35 -2 -8 4 -13 15 -13 18 0 18 2 5 28
-8 15 -21 44 -29 65 -8 20 -19 37 -25 37 -5 0 -17 -24 -27 -52z m42 -15 c-2
-3 -11 -3 -19 -1 -11 2 -12 9 -5 28 l10 25 9 -24 c5 -13 7 -26 5 -28z"/>
<path d="M2280 1270 c-11 -11 -20 -31 -20 -45 0 -49 66 -85 98 -53 20 20 13
32 -7 14 -11 -10 -28 -16 -38 -14 -22 4 -42 43 -35 70 7 26 48 46 64 30 7 -7
17 -12 23 -12 18 1 -28 30 -47 30 -10 0 -27 -9 -38 -20z"/>
<path d="M2425 1276 c-13 -9 -19 -26 -19 -51 0 -59 60 -88 97 -47 52 57 -17
143 -78 98z m67 -13 c24 -21 23 -55 -2 -78 -17 -15 -24 -16 -45 -7 -29 14 -35
61 -9 86 20 20 33 20 56 -1z"/>
<path d="M2565 1225 c0 -37 4 -65 10 -65 6 0 9 24 8 57 l-3 58 29 -60 29 -60
19 45 c11 25 23 52 26 60 4 8 6 -11 4 -43 -2 -51 0 -57 18 -57 15 0 16 3 7 12
-16 16 -15 90 1 107 10 10 7 12 -12 9 -19 -2 -28 -13 -40 -50 -9 -26 -19 -50
-23 -53 -3 -4 -14 18 -24 49 -12 37 -23 56 -33 56 -13 0 -16 -13 -16 -65z"/>
<path d="M2765 1225 c0 -40 4 -65 11 -65 6 0 9 12 6 29 -3 25 0 29 27 34 24 5
31 12 31 31 0 25 -16 36 -53 36 -20 0 -22 -5 -22 -65z m54 46 c19 -12 6 -41
-19 -41 -13 0 -20 7 -20 18 0 31 14 39 39 23z"/>
<path d="M2916 1282 c-4 -7 -46 -115 -46 -119 0 -2 7 -3 15 -3 8 0 12 6 10 13
-8 20 11 39 36 35 18 -2 24 -9 23 -25 0 -16 5 -23 19 -23 14 0 17 3 10 13 -6
6 -18 36 -27 65 -17 49 -28 62 -40 44z m27 -42 c4 -15 0 -20 -14 -20 -20 0
-23 8 -13 34 7 20 20 13 27 -14z"/>
<path d="M3025 1225 c0 -53 3 -65 16 -65 12 0 14 7 11 30 -3 23 0 30 12 30 10
0 22 -13 27 -30 6 -16 15 -30 20 -30 5 0 3 15 -4 33 -10 23 -11 37 -4 49 15
24 -8 48 -47 48 l-31 0 0 -65z m65 40 c15 -18 5 -35 -21 -35 -14 0 -19 7 -19
25 0 28 21 33 40 10z"/>
<path d="M3150 1274 c0 -13 3 -14 15 -4 26 21 38 1 33 -56 -3 -35 -1 -54 6
-54 7 0 10 22 8 60 -3 55 -2 60 16 60 11 0 23 -6 25 -12 3 -8 6 -6 6 5 1 14
-8 17 -54 17 -44 0 -55 -3 -55 -16z"/>
<path d="M3298 1278 c16 -16 16 -90 0 -106 -9 -9 -8 -12 7 -12 18 0 20 7 20
65 0 58 -2 65 -19 65 -16 0 -17 -3 -8 -12z"/>
<path d="M3375 1225 l0 -65 48 0 c34 0 47 4 47 14 0 8 -4 18 -10 21 -5 3 -10
-1 -10 -9 0 -11 -9 -16 -26 -16 -25 0 -26 1 -22 60 2 48 0 60 -12 60 -12 0
-15 -14 -15 -65z"/>
<path d="M3498 1278 c16 -16 16 -90 0 -106 -9 -9 -7 -12 8 -12 17 0 20 5 16
30 -4 29 -3 30 38 30 41 0 42 -1 38 -30 -3 -17 0 -30 6 -30 7 0 11 25 11 65 0
44 -4 65 -12 65 -7 0 -11 -12 -10 -27 2 -26 -1 -28 -37 -31 -38 -3 -38 -3 -34
27 4 26 1 31 -16 31 -15 0 -17 -3 -8 -12z"/>
<path d="M3668 1278 c16 -16 16 -90 0 -106 -9 -9 -2 -12 35 -12 38 0 47 3 46
18 0 10 -3 12 -6 5 -2 -7 -16 -13 -29 -13 -33 0 -35 47 -1 53 l22 4 -22 2
c-17 1 -23 7 -23 26 0 20 5 25 24 25 15 0 26 -7 29 -17 4 -14 5 -12 6 5 1 20
-4 22 -46 22 -37 0 -44 -3 -35 -12z"/>
<path d="M2205 1160 c-4 -12 -5 -24 -2 -27 3 -2 8 5 12 17 4 12 5 24 2 27 -3
2 -8 -5 -12 -17z"/>
<path d="M1965 1140 c-3 -5 -2 -10 4 -10 5 0 13 5 16 10 3 6 2 10 -4 10 -5 0
-13 -4 -16 -10z"/>
<path d="M2005 1035 l0 -65 43 0 c31 0 42 4 42 15 0 8 -4 15 -10 15 -5 0 -10
-5 -10 -11 0 -21 -45 -4 -48 19 -3 17 2 22 20 23 l23 0 -23 10 c-15 5 -22 16
-20 26 5 25 37 28 53 6 14 -17 14 -17 15 5 0 19 -5 22 -42 22 l-43 0 0 -65z"/>
<path d="M2187 1082 c-36 -40 -10 -112 41 -112 21 0 57 28 48 37 -3 3 -12 -2
-21 -11 -21 -21 -38 -20 -58 2 -23 25 -21 55 3 77 17 15 24 16 46 7 34 -16 42
-15 18 3 -26 20 -58 19 -77 -3z"/>
<path d="M2318 1088 c7 -7 12 -30 12 -53 0 -23 -5 -46 -12 -53 -9 -9 -7 -12 8
-12 17 0 20 5 16 30 -3 23 0 30 13 30 9 0 22 -13 28 -30 6 -16 15 -30 20 -30
10 0 -1 39 -15 58 -7 8 -7 12 1 12 17 0 13 47 -5 54 -9 3 -30 6 -47 6 -24 0
-28 -3 -19 -12z m61 -7 c19 -12 6 -41 -19 -41 -15 0 -20 7 -20 25 0 26 14 31
39 16z"/>
<path d="M2455 1035 l0 -65 43 0 c33 0 42 4 42 17 0 13 -3 14 -12 5 -21 -21
-48 -14 -48 12 0 18 7 26 23 29 l22 4 -22 2 c-17 1 -23 7 -23 26 0 30 33 35
49 8 9 -16 10 -16 11 5 0 19 -5 22 -42 22 l-43 0 0 -65z"/>
<path d="M2580 1085 c-17 -21 -5 -44 30 -56 33 -12 40 -36 14 -46 -10 -4 -22
1 -30 12 -8 10 -17 16 -20 12 -12 -11 17 -37 41 -37 27 0 49 24 41 45 -3 9
-19 21 -36 26 -16 6 -30 17 -30 25 0 19 28 30 43 15 6 -6 16 -11 22 -11 17 1
-27 30 -46 30 -9 0 -22 -7 -29 -15z"/>
<path d="M2705 1086 c-13 -9 -19 -26 -19 -51 0 -25 6 -42 19 -51 23 -17 57
-18 73 -2 20 20 13 32 -8 13 -29 -27 -70 -7 -70 34 0 44 47 81 65 51 3 -5 14
-10 23 -10 13 0 13 2 -4 15 -24 18 -55 19 -79 1z"/>
<path d="M2865 1088 c-2 -7 -13 -37 -24 -65 -18 -49 -18 -53 -2 -53 12 0 17 8
17 23 -1 17 5 22 24 22 18 0 26 -6 28 -22 2 -13 9 -23 16 -23 10 0 8 16 -9 62
-22 61 -41 82 -50 56z m25 -17 c0 -5 3 -16 6 -25 4 -12 0 -16 -16 -16 -16 0
-20 4 -16 16 3 9 6 20 6 25 0 5 5 9 10 9 6 0 10 -4 10 -9z"/>
<path d="M2735 950 c-3 -5 -1 -10 4 -10 6 0 11 5 11 10 0 6 -2 10 -4 10 -3 0
-8 -4 -11 -10z"/>
</g>
</svg>
